<svg width="64" height="64" viewBox="0 0 64 64" fill="none" xmlns="http://www.w3.org/2000/svg">
  <path d="M14 36C14 25.9543 22.9543 17 33 17C36.5945 17 39.9446 18.1282 42.7235 20.0518C44.7461 17.8905 47.6474 16.5 50.875 16.5C51.9802 16.5 52.875 17.3948 52.875 18.5C52.875 19.6052 51.9802 20.5 50.875 20.5C48.3906 20.5 46.1668 21.5986 44.6646 23.3364C47.9484 26.6515 50 31.2153 50 36.25C50 46.3282 41.8282 54.5 31.75 54.5C22.6113 54.5 15.0424 47.7751 13.7182 38.9994C13.4365 38.0214 13.7313 36.9647 14.4785 36.25C14.3246 36.1706 14.1649 36.0876 14 36Z" fill="white"/>
  <path d="M21.5 12.5C26.5 14.5 31.5 18.5 34.5 22.5C28.5 22 22.5 19.5 17.5 15.5C18.8333 17.8333 19.8333 20.3333 20.5 23C15.5 20.5 11.8333 16.3333 9.5 10.5C13.5 11.1667 17.5 11.8333 21.5 12.5Z" stroke="#2C2636" stroke-width="3.2" stroke-linecap="round" stroke-linejoin="round"/>
  <path d="M27.5 25.5C33.1 23.1 40.2 23.4 45.5 27C48.5 23.9 52.1 22 56.5 22C53.8 25.1 52.4 28.4 52.3 32.2C53.8 33.8 55 35.7 55.8 37.8C57.2 41.2 57.2 45 55.8 48.4C53.1 54.9 46.5 59 39.5 59H30.8C21.5 59 13.4 52.5 10.8 43.6C10.2 41.3 12 39 14.3 39H23.5L18.2 33.6C16.8 32.2 16.8 29.9 18.2 28.5C19.6 27.1 21.9 27.1 23.3 28.5L27.5 32.7V25.5Z" stroke="#2C2636" stroke-width="3.2" stroke-linecap="round" stroke-linejoin="round"/>
  <circle cx="39.5" cy="31" r="1.8" fill="#2C2636"/>
  <path d="M28 45.5C31.2 47.7 34.8 48.8 38.8 48.8C42.6 48.8 46 47.9 49 46.2" stroke="#CDB7F2" stroke-width="3" stroke-linecap="round"/>
</svg>
